<?xml version="1.0" encoding="utf-8"?>
<!-- Generator: Adobe Illustrator 25.0.0, SVG Export Plug-In . SVG Version: 6.00 Build 0)  -->
<svg version="1.1" id="Livello_1" xmlns="http://www.w3.org/2000/svg" xmlns:xlink="http://www.w3.org/1999/xlink" x="0px" y="0px"
	 viewBox="0 0 188.01 55.49" style="enable-background:new 0 0 188.01 55.49;" xml:space="preserve">
<style type="text/css">
	.st0{fill:#64AFFF;}
	.st1{fill:#FF8D46;}
</style>
<g>
	<g>
		<path class="st0" d="M13.65,41.39C6.12,41.39,0,35.27,0,27.74s6.12-13.65,13.65-13.65S27.3,20.21,27.3,27.74
			S21.17,41.39,13.65,41.39z M13.65,16.83c-6.02,0-10.92,4.9-10.92,10.92s4.9,10.92,10.92,10.92s10.92-4.9,10.92-10.92
			C24.57,21.72,19.67,16.83,13.65,16.83z"/>
	</g>
	<g>
		<path class="st0" d="M174.36,41.39c-7.53,0-13.65-6.12-13.65-13.65s6.12-13.65,13.65-13.65s13.65,6.12,13.65,13.65
			S181.88,41.39,174.36,41.39z M174.36,16.83c-6.02,0-10.92,4.9-10.92,10.92s4.9,10.92,10.92,10.92s10.92-4.9,10.92-10.92
			C185.27,21.72,180.38,16.83,174.36,16.83z"/>
	</g>
	<g>
		<g>
			<path class="st1" d="M94.69,41.39c-7.53,0-13.65-6.12-13.65-13.65s6.12-13.65,13.65-13.65s13.65,6.12,13.65,13.65
				S102.21,41.39,94.69,41.39z M94.69,16.83c-6.02,0-10.92,4.9-10.92,10.92s4.9,10.92,10.92,10.92s10.92-4.9,10.92-10.92
				C105.61,21.72,100.71,16.83,94.69,16.83z"/>
		</g>
		<g>
			<path class="st1" d="M94.69,10.91c-0.75,0-1.36-0.61-1.36-1.36V1.36c0-0.75,0.61-1.36,1.36-1.36s1.36,0.61,1.36,1.36v8.19
				C96.05,10.3,95.44,10.91,94.69,10.91z"/>
		</g>
		<g>
			<path class="st1" d="M81.82,16.24c-0.35,0-0.7-0.13-0.96-0.4l-5.79-5.79c-0.53-0.53-0.53-1.4,0-1.93s1.4-0.53,1.93,0l5.79,5.79
				c0.53,0.53,0.53,1.4,0,1.93C82.52,16.11,82.17,16.24,81.82,16.24z"/>
		</g>
		<g>
			<path class="st1" d="M76.49,29.11H68.3c-0.75,0-1.36-0.61-1.36-1.36s0.61-1.36,1.36-1.36h8.19c0.75,0,1.36,0.61,1.36,1.36
				C77.86,28.5,77.25,29.11,76.49,29.11z"/>
		</g>
		<g>
			<path class="st1" d="M76.03,47.76c-0.35,0-0.7-0.13-0.96-0.4c-0.53-0.53-0.53-1.4,0-1.93l5.79-5.79c0.53-0.53,1.4-0.53,1.93,0
				s0.53,1.4,0,1.93L77,47.36C76.73,47.63,76.38,47.76,76.03,47.76z"/>
		</g>
		<g>
			<path class="st1" d="M94.69,55.49c-0.75,0-1.36-0.61-1.36-1.36v-8.19c0-0.75,0.61-1.36,1.36-1.36s1.36,0.61,1.36,1.36v8.19
				C96.05,54.88,95.44,55.49,94.69,55.49z"/>
		</g>
		<g>
			<path class="st1" d="M113.34,47.76c-0.35,0-0.7-0.13-0.96-0.4l-5.79-5.79c-0.53-0.53-0.53-1.4,0-1.93s1.4-0.53,1.93,0l5.79,5.79
				c0.53,0.53,0.53,1.4,0,1.93C114.04,47.63,113.69,47.76,113.34,47.76z"/>
		</g>
		<g>
			<path class="st1" d="M121.07,29.11h-8.19c-0.75,0-1.36-0.61-1.36-1.36s0.61-1.36,1.36-1.36h8.19c0.75,0,1.36,0.61,1.36,1.36
				S121.82,29.11,121.07,29.11z"/>
		</g>
		<g>
			<path class="st1" d="M107.55,16.24c-0.35,0-0.7-0.13-0.96-0.4c-0.53-0.53-0.53-1.4,0-1.93l5.79-5.79c0.53-0.53,1.4-0.53,1.93,0
				s0.53,1.4,0,1.93l-5.79,5.79C108.25,16.11,107.9,16.24,107.55,16.24z"/>
		</g>
	</g>
	<g>
		<path class="st0" d="M60.08,40.71H35.52c-0.75,0-1.36-0.61-1.36-1.36s0.61-1.36,1.36-1.36h21.13L34.58,17.14
			c-0.41-0.38-0.54-0.98-0.33-1.5s0.71-0.86,1.27-0.86h24.56c0.75,0,1.36,0.61,1.36,1.36s-0.61,1.36-1.36,1.36H38.95l22.07,20.84
			c0.41,0.38,0.54,0.98,0.33,1.5C61.14,40.36,60.64,40.71,60.08,40.71z"/>
	</g>
	<g>
		<path class="st0" d="M129.29,41.39c-0.17,0-0.34-0.03-0.5-0.1c-0.52-0.21-0.86-0.71-0.86-1.27V15.46c0-0.75,0.61-1.36,1.36-1.36
			s1.36,0.61,1.36,1.36v21.13l20.84-22.07c0.39-0.41,0.98-0.53,1.5-0.33c0.52,0.21,0.86,0.71,0.86,1.27v24.56
			c0,0.75-0.61,1.36-1.36,1.36s-1.36-0.61-1.36-1.36V18.89l-20.84,22.07C130.02,41.24,129.66,41.39,129.29,41.39z"/>
	</g>
</g>
</svg>
